<svg
        xmlns="http://www.w3.org/2000/svg"
        viewBox="2 2 26 26" width="26" height="26">
    <path fill-rule="evenodd"  stroke="rgb(0, 0, 0)" stroke-width="2px" stroke-linecap="butt" stroke-linejoin="miter" fill="none"
          d="M2.228,5.000 L7.098,7.872 L7.098,16.488 C7.098,16.488 6.234,20.023 9.311,20.023 C12.388,20.023 25.050,20.023 25.050,20.023 L26.599,16.709 "/>
    <path fill-rule="evenodd"  fill="rgb(0, 0, 0)"
          d="M21.609,23.562 C22.343,23.562 22.938,24.157 22.938,24.891 C22.938,25.624 22.343,26.219 21.609,26.219 C20.876,26.219 20.281,25.624 20.281,24.891 C20.281,24.157 20.876,23.562 21.609,23.562 Z"/>
    <path fill-rule="evenodd"  fill="rgb(0, 0, 0)"
          d="M10.641,23.562 C11.374,23.562 11.969,24.157 11.969,24.891 C11.969,25.624 11.374,26.219 10.641,26.219 C9.907,26.219 9.312,25.624 9.312,24.891 C9.312,24.157 9.907,23.562 10.641,23.562 Z"/>
</svg>