<svg
        xmlns="http://www.w3.org/2000/svg"
        width="25px" height="23px">
    <path fill-rule="evenodd" stroke="#b2b5b6" stroke-width="2px" fill="none"
          d="M20.353,14.569 C20.127,14.362 19.856,14.205 19.560,14.110 C19.146,13.914 17.112,12.964 16.734,12.833 C16.440,12.637 16.036,12.706 15.831,12.987 C15.821,13.001 15.811,13.015 15.803,13.030 C15.528,13.423 14.735,14.307 14.493,14.569 C14.275,14.833 13.874,14.878 13.598,14.669 C13.598,14.669 13.597,14.668 13.596,14.668 C12.378,14.207 11.253,13.548 10.271,12.719 C9.368,11.926 8.593,11.010 7.971,9.999 C7.787,9.739 7.859,9.385 8.131,9.210 C8.138,9.205 8.145,9.201 8.152,9.197 C8.338,9.020 8.566,8.738 8.772,8.508 C8.943,8.311 9.082,8.090 9.185,7.854 C9.298,7.634 9.285,7.374 9.151,7.166 C9.048,6.969 8.221,5.036 7.876,4.250 C7.532,3.464 7.187,3.595 6.946,3.595 C6.704,3.595 6.428,3.562 6.153,3.562 C5.730,3.572 5.330,3.750 5.050,4.053 C4.106,4.901 3.581,6.091 3.603,7.329 C3.738,8.812 4.325,10.224 5.291,11.391 C5.498,11.653 8.152,15.747 12.356,17.320 C16.559,18.892 16.560,18.368 17.319,18.302 C18.078,18.236 19.765,17.352 20.111,16.435 C20.380,15.849 20.464,15.200 20.353,14.569 Z"/>
</svg>