<svg id="svg2" xmlns="http://www.w3.org/2000/svg" height="30" width="88" version="1.1">    <g transform="translate(0,-693.36218)">        <g transform="matrix(0.04867828,0,0,0.03967828,45.5,683.86829)">            <path id="path3151" fill="#fff"                  d="m67.0714,1002.1533c-35.019-1.1958-78.1605-5.26316-132.5-12.49217-47.83895-6.36421-80.84554-11.6419-246-39.3349-111.26099-18.65618-169.80423-26.02551-220-27.69325l-19.5-0.64788-31.5,1.14629c-103.58697,3.76958-198.39815,16.338-325.85171,43.19578l-33.3517,7.02807-1.40479-0.53907-1.4048-0.53907,0.2565-73.27889,0.2565-73.27889,18-4.74534c90.77358-23.93062,167.76195-36.79224,256.5-42.8507l16.5-1.12652,83.5-0.4939,83.5-0.4939,21,1.15036c73.38295,4.01988,130.51432,11.9561,267,37.08944,128.99237,23.75347,180.6549,31.30907,250.5,36.63541l22.5,1.71583,48,0.0244,48,0.0244,22-1.24379c31.8311-1.79959,70.0051-4.80284,110-8.654l35-3.37019,0.9611,0.93041,0.9611,0.93041-1.9611,1.83657c-1.4083,1.31892-200.9162,130.27422-242.4611,156.71889-1.925,1.2253-4.4,2.4181-5.5,2.6506s-11.45,0.1001-23-0.2943zm298.5-48.52864,0-1.59466,49.0799-80.3096,49.0799-80.3096,2.1701-0.58209,2.1701-0.58208,204.1786-0.0137,204.1785-0.0136,1.5715,1.57143,1.5714,1.57143,0,79.72857,0,79.72857-1.2,1.2-1.2,1.2-255.8,0-255.8,0,0-1.59466zm-602.5-245.52566c-6.6-0.45973-18.37821-1.76207-26.1738-2.89409l-14.17381-2.05822-11.82619-2.89963c-6.50441-1.5948-16.1012-4.31475-21.3262-6.04433l-9.5-3.14469-16-7.8667-16-7.8667-10.52437-7.94033-10.52436-7.94032-8.97564-9.39597-8.97563-9.39598-6.12329-8.96636-6.12328-8.96636-4.47599-9c-7.96998-16.02551-13.06161-32.10475-16.30792-51.5l-1.59007-9.5-0.57251-17-0.57252-17,1.17071-12c0.64389-6.6,2.07796-16.5,3.18681-22l2.01609-10,3.86318-11.60512,3.86319-11.60512,4.49098-8.94208c2.47004-4.91814,7.31578-13.19584,10.7683-18.39488l6.27732-9.4528,12.0645-12.03638,12.0645-12.03638,9-6.0589c12.16338-8.18852,23.71225-14.26098,37.59348-19.76687l11.59349-4.59846,15.40651-3.90766,15.40652-3.90765,15.5-2.33958,15.5-2.33958,38.5-0.004,38.5-0.004,10.5,1.32241c33.76955,4.25308,58.94115,11.20846,82.1469,22.69872l10.6469,5.27179,8.3531,5.58067c15.42066,10.30248,27.3976,21.90334,38.3301,37.12641l5.7452,8,5.4556,10.86626,5.4555,10.86625,3.3837,10.13375,3.3838,10.13374,2.5132,12.5,2.5133,12.5,1.1679,14,1.1679,14-0.6446,14.45976-0.6447,14.45975-1.5493,10.54025c-3.1083,21.14697-8.6458,38.85489-17.6041,56.2949l-5.1346,9.99586-6.0021,8.12474c-3.3011,4.46861-9.4179,11.65763-13.59289,15.9756l-7.59081,7.85086-9,6.72458c-14.77903,11.04255-24.6551,16.46394-43.20509,23.71712l-11.42036,4.46544-15.18727,3.85172-15.18728,3.85172-15,2.09765-15,2.09765-15,0.98073-15,0.98073-14.5-0.12676c-7.975-0.0697-19.9-0.5029-26.5-0.96262zm45-66.89788,9-1.00178,7-2.08089,7-2.08089,5.96968-3.15912,5.96969-3.15912,5.10432-5.18121,5.10433-5.1812,3.07829-5.8188c1.69306-3.20033,4.02193-8.90262,5.17525-12.67174l2.09697-6.85295,1.53163-11.64705,1.53163-11.64705,0.59925-30.5,0.59926-30.5-1.15049-19.3827-1.15049-19.3827-1.98872-9.1173-1.98872-9.1173-3.46942-7.30848-3.46943-7.30849-5.77151-5.76181-5.77152-5.76181-6.5-3.17386-6.5-3.17387-8-2.08881-8-2.08881-15.5-0.51797-15.5-0.51797-9.71816,1.59755-9.71816,1.59755-6.75586,2.5429-6.75586,2.54289-4.79154,3.07473-4.79155,3.07473-4.08975,4.63576-4.08975,4.63577-2.77989,5.5c-3.7423,7.4041-6.47735,16.65016-8.1347,27.5l-1.37478,9v46,46l1.29008,9c0.70955,4.95,2.19989,12.369,3.31187,16.48666l2.02178,7.48666,3.01412,6.31551,3.01411,6.31552,5.6946,5.81971,5.69459,5.81972,6.97943,3.47956,6.97942,3.47955,6.5,1.7178c12.55601,3.31828,28.34582,4.24792,43.5,2.56111zm438.5,66.8515-9.5-0.89481-12.3474-2.49474-12.3473-2.49475-11.1527-3.58268-11.1526-3.58269-11.2719-5.33269c-13.9869-6.61721-21.2098-10.92314-32.7484-19.523l-9.0202-6.72295-10.4798-10.86704-10.4797-10.86703-6.1238-8.98546-6.1239-8.98546-4.975-10c-8.5176-17.1205-13.5569-32.88884-16.7782-52.5l-1.5604-9.5-0.6035-15.5-0.6034-15.5,1.1918-12.5,1.1917-12.5,1.9964-10,1.9963-10,3.8613-11.59928,3.8612-11.59929,5.2109-10.40071,5.2109-10.40072,6.1239-8.97958,6.1238-8.97958,10-10.40568,10-10.40569,8-6.2198c11.0428-8.5855,18.9732-13.40914,33.5282-20.39352l12.4718-5.9847,11-3.6066,11-3.60661,12-2.42444,12-2.42443,12-1.17526,12-1.17526,24.5,0.61415,24.5,0.61415,16,1.54808c36.9709,3.57711,66.6803,9.82416,91.0112,19.13709l9.4888,3.63194v1.94159,1.94159l-13.1057,30.67628c-7.2081,16.87195-13.4958,31.09146-13.9726,31.59889l-0.8669,0.92262-13.7774-4.61259c-21.8374-7.31101-36.502-10.50111-58.7493-12.78009l-11.9719-1.22638-11.5281,0.58963-11.5281,0.58963-8.3179,2.04837-8.3179,2.04837-7.1821,3.34812-7.1821,3.34812-5.5,4.12695-5.5,4.12696-5.3246,6.27384-5.3246,6.27384-4.8851,10-4.885,10-2.0145,7.5c-1.1079,4.125-2.7853,11.775-3.7274,17l-1.713,9.5v21,21l1.6545,9.51189c0.9099,5.23154,2.8109,13.50248,4.2243,18.37987l2.5698,8.86797,3.4805,7.12013,3.4806,7.12014,4.9588,6.60712,4.9589,6.60711,4.555,3.73249c2.5052,2.05286,7.1264,5.2809,10.2692,7.1734l5.7142,3.44093,9.0082,2.88344,9.0081,2.88345,7.8224,1.08603,7.8223,1.08603,7.6777-0.0173c22.3951-0.0505,51.6528-5.39577,76.5784-13.99048l11.8583-4.08893,1.4477,0.29837,1.4477,0.29837,13.4227,31.33685c7.3826,17.23527,13.4228,31.96122,13.4228,32.72432v1.38747l-2.8295,1.46319c-9.9107,5.12505-40.9851,13.7384-63.1705,17.50992-34.0581,5.78989-85.6415,8.48845-113,5.91155zm423.5,0.55283c-3.3-0.21062-13.1911-1.09457-21.9803-1.96434l-15.9802-1.58141-14.0198-2.45643c-18.1687-3.18339-32.1364-6.61753-47.0197-11.56037l-12-3.98529-12.376-5.91077-12.376-5.91078-8.1851-5.44615-8.185-5.44616-7.1417-6.61206-7.1416-6.61207-4.6991-6.20015-4.6992-6.20015-4.4402-9.31013-4.4403-9.31012-2.0097-9.68988-2.0098-9.68987,0.5421-13.5,0.542-13.5,1.5495-6.25547c0.8522-3.44051,2.9296-9.83436,4.6165-14.20855l3.067-7.95309,5.0804-7.79145,5.0804-7.79144,7.6129-7.58047,7.6129-7.58048,7.5079-5.03666c19.2218-12.89481,42.4208-21.82006,73.4009-28.2392l14.0912-2.91972,16.5-2.04148c9.075-1.12282,22.575-2.5251,30-3.1162l13.5-1.07471,32.3969-0.61334,32.3969-0.61334-0.609-12.5922-0.609-12.5922-1.4769-7.68297-1.4769-7.68296-2.5611-5.41374-2.5611-5.41373-3.5625-3.66816-3.5624-3.66816-4.7302-2.39695c-2.6016-1.31831-7.2887-3.14075-10.4159-4.04985l-5.6858-1.6529-12.2715-0.76925-12.2715-0.76924-22.5,0.77908-22.5,0.77908-11.4325,1.61936-11.4326,1.61937-11.4514,2.95261-11.4513,2.95262-13.6161,5.57902c-7.4889,3.06846-15.5036,6.31074-17.8106,7.20506l-4.1945,1.62603-0.7115-0.71152c-0.3914-0.39134-5.0933-12.72969-10.4488-27.41856l-9.7372-26.70702,0.4714-1.22857,0.4715-1.22858,6.1912-2.47849c25.3554-10.15048,67.09-17.71223,114.5019-20.74623l18.3496-1.17423,32.1504,0.5532,32.1505,0.55321,12.435,1.58149c6.8393,0.86981,18.0893,2.74479,25,4.16662l12.565,2.58514,11.7014,3.83875,11.7014,3.83875,9.2986,4.49895,9.2986,4.49896,7.973,5.3169,7.973,5.31691,7.6968,7.59255,7.6968,7.59255,5.6835,8.71919,5.6834,8.71919,3.5229,8.68826,3.523,8.68826,2.554,11.5,2.554,11.5,0.3794,109.69039,0.3794,109.69039-1.8673,1.86728-1.8672,1.86727-17.4424,5.14144c-40.2984,11.87867-74.14,18.69056-113.385,22.82291l-14.0573,1.48019-27.5,0.3546c-15.125,0.19503-30.2,0.18227-33.5-0.0283zm49.2947-68.47515,14.6694-1.08901,1.7766-0.95077,1.7765-0.95077-0.2586-54.21021-0.2586-54.21022-19.5,0.25289-19.5,0.2529-13.7794,1.53708-13.7793,1.53708-9.5925,2.43332-9.5924,2.43332-8.2128,3.97522-8.2128,3.97521-4.9927,4.4889-4.9927,4.4889-3.0899,5.81259-3.09,5.81259-1.1798,6.5-1.1798,6.5,0.642,7c0.8317,9.06868,2.9812,16.58964,6.7968,23.78126l3.0673,5.78127,6.1516,5.7545,6.1515,5.75451,7.5716,3.74116,7.5715,3.74116,9.6124,2.43839,9.6125,2.4384,8.7584,0.89997c12.5994,1.29465,20.4665,1.31171,37.0532,0.0804zm-1662.58835,59.89537-1.20635-1.20635,0-234.82475,0-234.82475,2.28745-0.86969,2.28745-0.86969,153.96255-0.27851,153.96255-0.2785,13.33997,1.67234c25.50508,3.19741,46.47053,8.6872,63.9016,16.7326l8.24157,3.80394,8.50873,5.54627,8.50873,5.54627,8.41162,8.07549,8.41161,8.07549,5.06848,7.3318,5.06847,7.3318,4.05501,8.36495,4.05502,8.36494,2.41632,8c1.32897,4.4,3.21117,12.05,4.18265,17l1.76633,9v18,18l-1.77353,8.874c-0.97545,4.8807-2.92369,12.5307-4.32944,17l-2.5559,8.126-3.92174,7.88448c-2.15696,4.33647-6.19237,11.16907-8.96758,15.18355l-5.04585,7.29907-8.67103,8.34547-8.67104,8.34547-9.4528,6.3128c-10.52326,7.02767-22.35965,13.18722-34.84784,18.13449l-8.30064,3.28835,0.4363,1.13699c0.23997,0.62534,26.58776,48.11268,58.55064,105.52742l58.11434,104.39044v1.83138,1.83138l-84.75-0.25564-84.75-0.25565-23-45.5194c-31.10864-61.56724-70.97683-136.41761-73.49207-137.97741l-0.81143-0.50319-30.34825,0.5-30.34825,0.5-0.5,91.5-0.5,91.5-74.04365,0.25635-74.04364,0.25636-1.20636-1.20636zm173.29365-256.8319c35.42737-2.57459,60.43956-7.88127,80.21967-17.0197l8.2388-3.80634,7.55969-5.22601,7.55969-5.22601,7.21107-7.67957,7.21108-7.67958,4.6547-8.91862,4.65471-8.91862,2.59529-8.30162,2.5953-8.30162-0.0148-5.19838-0.0148-5.19838-1.51022-6.40693-1.51022-6.40693-3.225-6.06501-3.225-6.06501-5.18828-5.1946-5.18829-5.19461-6.31171-3.52007-6.31172-3.52006-7.62392-2.48056-7.62391-2.48057-10.37609-1.8169-10.37604-1.8169-43.5-0.0159-43.5-0.0159-0.2588,70.5c-0.14233,38.775-0.044,71.0625,0.21862,71.75l0.47741,1.25,4.28139-0.004c2.35476-0.002,10.58138-0.4619,18.28138-1.02148z"/>            <path opacity="0.5" id="path3151" fill="#075fa7"                  d="m67.0714,1002.1533c-35.019-1.1958-78.1605-5.26316-132.5-12.49217-47.83895-6.36421-80.84554-11.6419-246-39.3349-111.26099-18.65618-169.80423-26.02551-220-27.69325l-19.5-0.64788-31.5,1.14629c-103.58697,3.76958-198.39815,16.338-325.85171,43.19578l-33.3517,7.02807-1.40479-0.53907-1.4048-0.53907,0.2565-73.27889,0.2565-73.27889,18-4.74534c90.77358-23.93062,167.76195-36.79224,256.5-42.8507l16.5-1.12652,83.5-0.4939,83.5-0.4939,21,1.15036c73.38295,4.01988,130.51432,11.9561,267,37.08944,128.99237,23.75347,180.6549,31.30907,250.5,36.63541l22.5,1.71583,48,0.0244,48,0.0244,22-1.24379c31.8311-1.79959,70.0051-4.80284,110-8.654l35-3.37019,0.9611,0.93041,0.9611,0.93041-1.9611,1.83657c-1.4083,1.31892-200.9162,130.27422-242.4611,156.71889-1.925,1.2253-4.4,2.4181-5.5,2.6506s-11.45,0.1001-23-0.2943zm298.5-48.52864,0-1.59466,49.0799-80.3096,49.0799-80.3096,2.1701-0.58209,2.1701-0.58208,204.1786-0.0137,204.1785-0.0136,1.5715,1.57143,1.5714,1.57143,0,79.72857,0,79.72857-1.2,1.2-1.2,1.2-255.8,0-255.8,0,0-1.59466zm-602.5-245.52566c-6.6-0.45973-18.37821-1.76207-26.1738-2.89409l-14.17381-2.05822-11.82619-2.89963c-6.50441-1.5948-16.1012-4.31475-21.3262-6.04433l-9.5-3.14469-16-7.8667-16-7.8667-10.52437-7.94033-10.52436-7.94032-8.97564-9.39597-8.97563-9.39598-6.12329-8.96636-6.12328-8.96636-4.47599-9c-7.96998-16.02551-13.06161-32.10475-16.30792-51.5l-1.59007-9.5-0.57251-17-0.57252-17,1.17071-12c0.64389-6.6,2.07796-16.5,3.18681-22l2.01609-10,3.86318-11.60512,3.86319-11.60512,4.49098-8.94208c2.47004-4.91814,7.31578-13.19584,10.7683-18.39488l6.27732-9.4528,12.0645-12.03638,12.0645-12.03638,9-6.0589c12.16338-8.18852,23.71225-14.26098,37.59348-19.76687l11.59349-4.59846,15.40651-3.90766,15.40652-3.90765,15.5-2.33958,15.5-2.33958,38.5-0.004,38.5-0.004,10.5,1.32241c33.76955,4.25308,58.94115,11.20846,82.1469,22.69872l10.6469,5.27179,8.3531,5.58067c15.42066,10.30248,27.3976,21.90334,38.3301,37.12641l5.7452,8,5.4556,10.86626,5.4555,10.86625,3.3837,10.13375,3.3838,10.13374,2.5132,12.5,2.5133,12.5,1.1679,14,1.1679,14-0.6446,14.45976-0.6447,14.45975-1.5493,10.54025c-3.1083,21.14697-8.6458,38.85489-17.6041,56.2949l-5.1346,9.99586-6.0021,8.12474c-3.3011,4.46861-9.4179,11.65763-13.59289,15.9756l-7.59081,7.85086-9,6.72458c-14.77903,11.04255-24.6551,16.46394-43.20509,23.71712l-11.42036,4.46544-15.18727,3.85172-15.18728,3.85172-15,2.09765-15,2.09765-15,0.98073-15,0.98073-14.5-0.12676c-7.975-0.0697-19.9-0.5029-26.5-0.96262zm45-66.89788,9-1.00178,7-2.08089,7-2.08089,5.96968-3.15912,5.96969-3.15912,5.10432-5.18121,5.10433-5.1812,3.07829-5.8188c1.69306-3.20033,4.02193-8.90262,5.17525-12.67174l2.09697-6.85295,1.53163-11.64705,1.53163-11.64705,0.59925-30.5,0.59926-30.5-1.15049-19.3827-1.15049-19.3827-1.98872-9.1173-1.98872-9.1173-3.46942-7.30848-3.46943-7.30849-5.77151-5.76181-5.77152-5.76181-6.5-3.17386-6.5-3.17387-8-2.08881-8-2.08881-15.5-0.51797-15.5-0.51797-9.71816,1.59755-9.71816,1.59755-6.75586,2.5429-6.75586,2.54289-4.79154,3.07473-4.79155,3.07473-4.08975,4.63576-4.08975,4.63577-2.77989,5.5c-3.7423,7.4041-6.47735,16.65016-8.1347,27.5l-1.37478,9v46,46l1.29008,9c0.70955,4.95,2.19989,12.369,3.31187,16.48666l2.02178,7.48666,3.01412,6.31551,3.01411,6.31552,5.6946,5.81971,5.69459,5.81972,6.97943,3.47956,6.97942,3.47955,6.5,1.7178c12.55601,3.31828,28.34582,4.24792,43.5,2.56111zm438.5,66.8515-9.5-0.89481-12.3474-2.49474-12.3473-2.49475-11.1527-3.58268-11.1526-3.58269-11.2719-5.33269c-13.9869-6.61721-21.2098-10.92314-32.7484-19.523l-9.0202-6.72295-10.4798-10.86704-10.4797-10.86703-6.1238-8.98546-6.1239-8.98546-4.975-10c-8.5176-17.1205-13.5569-32.88884-16.7782-52.5l-1.5604-9.5-0.6035-15.5-0.6034-15.5,1.1918-12.5,1.1917-12.5,1.9964-10,1.9963-10,3.8613-11.59928,3.8612-11.59929,5.2109-10.40071,5.2109-10.40072,6.1239-8.97958,6.1238-8.97958,10-10.40568,10-10.40569,8-6.2198c11.0428-8.5855,18.9732-13.40914,33.5282-20.39352l12.4718-5.9847,11-3.6066,11-3.60661,12-2.42444,12-2.42443,12-1.17526,12-1.17526,24.5,0.61415,24.5,0.61415,16,1.54808c36.9709,3.57711,66.6803,9.82416,91.0112,19.13709l9.4888,3.63194v1.94159,1.94159l-13.1057,30.67628c-7.2081,16.87195-13.4958,31.09146-13.9726,31.59889l-0.8669,0.92262-13.7774-4.61259c-21.8374-7.31101-36.502-10.50111-58.7493-12.78009l-11.9719-1.22638-11.5281,0.58963-11.5281,0.58963-8.3179,2.04837-8.3179,2.04837-7.1821,3.34812-7.1821,3.34812-5.5,4.12695-5.5,4.12696-5.3246,6.27384-5.3246,6.27384-4.8851,10-4.885,10-2.0145,7.5c-1.1079,4.125-2.7853,11.775-3.7274,17l-1.713,9.5v21,21l1.6545,9.51189c0.9099,5.23154,2.8109,13.50248,4.2243,18.37987l2.5698,8.86797,3.4805,7.12013,3.4806,7.12014,4.9588,6.60712,4.9589,6.60711,4.555,3.73249c2.5052,2.05286,7.1264,5.2809,10.2692,7.1734l5.7142,3.44093,9.0082,2.88344,9.0081,2.88345,7.8224,1.08603,7.8223,1.08603,7.6777-0.0173c22.3951-0.0505,51.6528-5.39577,76.5784-13.99048l11.8583-4.08893,1.4477,0.29837,1.4477,0.29837,13.4227,31.33685c7.3826,17.23527,13.4228,31.96122,13.4228,32.72432v1.38747l-2.8295,1.46319c-9.9107,5.12505-40.9851,13.7384-63.1705,17.50992-34.0581,5.78989-85.6415,8.48845-113,5.91155zm423.5,0.55283c-3.3-0.21062-13.1911-1.09457-21.9803-1.96434l-15.9802-1.58141-14.0198-2.45643c-18.1687-3.18339-32.1364-6.61753-47.0197-11.56037l-12-3.98529-12.376-5.91077-12.376-5.91078-8.1851-5.44615-8.185-5.44616-7.1417-6.61206-7.1416-6.61207-4.6991-6.20015-4.6992-6.20015-4.4402-9.31013-4.4403-9.31012-2.0097-9.68988-2.0098-9.68987,0.5421-13.5,0.542-13.5,1.5495-6.25547c0.8522-3.44051,2.9296-9.83436,4.6165-14.20855l3.067-7.95309,5.0804-7.79145,5.0804-7.79144,7.6129-7.58047,7.6129-7.58048,7.5079-5.03666c19.2218-12.89481,42.4208-21.82006,73.4009-28.2392l14.0912-2.91972,16.5-2.04148c9.075-1.12282,22.575-2.5251,30-3.1162l13.5-1.07471,32.3969-0.61334,32.3969-0.61334-0.609-12.5922-0.609-12.5922-1.4769-7.68297-1.4769-7.68296-2.5611-5.41374-2.5611-5.41373-3.5625-3.66816-3.5624-3.66816-4.7302-2.39695c-2.6016-1.31831-7.2887-3.14075-10.4159-4.04985l-5.6858-1.6529-12.2715-0.76925-12.2715-0.76924-22.5,0.77908-22.5,0.77908-11.4325,1.61936-11.4326,1.61937-11.4514,2.95261-11.4513,2.95262-13.6161,5.57902c-7.4889,3.06846-15.5036,6.31074-17.8106,7.20506l-4.1945,1.62603-0.7115-0.71152c-0.3914-0.39134-5.0933-12.72969-10.4488-27.41856l-9.7372-26.70702,0.4714-1.22857,0.4715-1.22858,6.1912-2.47849c25.3554-10.15048,67.09-17.71223,114.5019-20.74623l18.3496-1.17423,32.1504,0.5532,32.1505,0.55321,12.435,1.58149c6.8393,0.86981,18.0893,2.74479,25,4.16662l12.565,2.58514,11.7014,3.83875,11.7014,3.83875,9.2986,4.49895,9.2986,4.49896,7.973,5.3169,7.973,5.31691,7.6968,7.59255,7.6968,7.59255,5.6835,8.71919,5.6834,8.71919,3.5229,8.68826,3.523,8.68826,2.554,11.5,2.554,11.5,0.3794,109.69039,0.3794,109.69039-1.8673,1.86728-1.8672,1.86727-17.4424,5.14144c-40.2984,11.87867-74.14,18.69056-113.385,22.82291l-14.0573,1.48019-27.5,0.3546c-15.125,0.19503-30.2,0.18227-33.5-0.0283zm49.2947-68.47515,14.6694-1.08901,1.7766-0.95077,1.7765-0.95077-0.2586-54.21021-0.2586-54.21022-19.5,0.25289-19.5,0.2529-13.7794,1.53708-13.7793,1.53708-9.5925,2.43332-9.5924,2.43332-8.2128,3.97522-8.2128,3.97521-4.9927,4.4889-4.9927,4.4889-3.0899,5.81259-3.09,5.81259-1.1798,6.5-1.1798,6.5,0.642,7c0.8317,9.06868,2.9812,16.58964,6.7968,23.78126l3.0673,5.78127,6.1516,5.7545,6.1515,5.75451,7.5716,3.74116,7.5715,3.74116,9.6124,2.43839,9.6125,2.4384,8.7584,0.89997c12.5994,1.29465,20.4665,1.31171,37.0532,0.0804zm-1662.58835,59.89537-1.20635-1.20635,0-234.82475,0-234.82475,2.28745-0.86969,2.28745-0.86969,153.96255-0.27851,153.96255-0.2785,13.33997,1.67234c25.50508,3.19741,46.47053,8.6872,63.9016,16.7326l8.24157,3.80394,8.50873,5.54627,8.50873,5.54627,8.41162,8.07549,8.41161,8.07549,5.06848,7.3318,5.06847,7.3318,4.05501,8.36495,4.05502,8.36494,2.41632,8c1.32897,4.4,3.21117,12.05,4.18265,17l1.76633,9v18,18l-1.77353,8.874c-0.97545,4.8807-2.92369,12.5307-4.32944,17l-2.5559,8.126-3.92174,7.88448c-2.15696,4.33647-6.19237,11.16907-8.96758,15.18355l-5.04585,7.29907-8.67103,8.34547-8.67104,8.34547-9.4528,6.3128c-10.52326,7.02767-22.35965,13.18722-34.84784,18.13449l-8.30064,3.28835,0.4363,1.13699c0.23997,0.62534,26.58776,48.11268,58.55064,105.52742l58.11434,104.39044v1.83138,1.83138l-84.75-0.25564-84.75-0.25565-23-45.5194c-31.10864-61.56724-70.97683-136.41761-73.49207-137.97741l-0.81143-0.50319-30.34825,0.5-30.34825,0.5-0.5,91.5-0.5,91.5-74.04365,0.25635-74.04364,0.25636-1.20636-1.20636zm173.29365-256.8319c35.42737-2.57459,60.43956-7.88127,80.21967-17.0197l8.2388-3.80634,7.55969-5.22601,7.55969-5.22601,7.21107-7.67957,7.21108-7.67958,4.6547-8.91862,4.65471-8.91862,2.59529-8.30162,2.5953-8.30162-0.0148-5.19838-0.0148-5.19838-1.51022-6.40693-1.51022-6.40693-3.225-6.06501-3.225-6.06501-5.18828-5.1946-5.18829-5.19461-6.31171-3.52007-6.31172-3.52006-7.62392-2.48056-7.62391-2.48057-10.37609-1.8169-10.37604-1.8169-43.5-0.0159-43.5-0.0159-0.2588,70.5c-0.14233,38.775-0.044,71.0625,0.21862,71.75l0.47741,1.25,4.28139-0.004c2.35476-0.002,10.58138-0.4619,18.28138-1.02148z"/>        </g>    </g></svg>