<svg height="20px" width="28px" xmlns="http://www.w3.org/2000/svg">
                                <path d="M26.281,6.317 C26.281,6.317 27.936,8.826 25.334,10.328 C23.323,11.489 22.263,9.792 22.263,9.792 C22.263,9.792 21.586,9.028 20.222,9.815 " fill="none" fill-rule="evenodd" stroke="rgb(196, 214, 220)" stroke-width="2px"></path>
                                <path d="M26.281,10.317 C26.281,10.317 27.936,12.826 25.334,14.328 C23.323,15.489 22.263,13.791 22.263,13.791 C22.263,13.791 21.586,13.028 20.222,13.815 " fill="none" fill-rule="evenodd" stroke="rgb(196, 214, 220)" stroke-width="2px"></path>
                                <path d="M25.281,2.317 C25.281,2.317 26.936,4.826 24.333,6.328 C22.323,7.489 21.263,5.791 21.263,5.791 C21.263,5.791 20.586,5.028 19.222,5.815 " fill="none" fill-rule="evenodd" stroke="rgb(196, 214, 220)" stroke-width="2px"></path>
                                <path d="M11.643,3.904 C12.946,6.312 12.682,9.077 11.052,10.080 C9.423,11.084 8.352,9.007 7.049,6.599 C5.746,4.191 4.703,2.364 6.333,1.361 C7.962,0.357 10.339,1.496 11.643,3.904 Z" fill="none" fill-rule="evenodd" stroke="rgb(196, 214, 220)" stroke-width="2px"></path>
                                <path d="M5.722,6.016 C8.328,6.016 10.442,7.643 10.442,9.650 C10.442,11.656 8.328,11.407 5.722,11.407 C3.115,11.407 1.002,11.656 1.002,9.650 C1.002,7.643 3.115,6.016 5.722,6.016 Z" fill="none" fill-rule="evenodd" stroke="rgb(196, 214, 220)" stroke-width="2px"></path>
                                <path d="M6.672,12.964 C6.672,10.183 8.197,7.929 10.079,7.929 C11.960,7.929 11.757,9.444 11.757,12.225 C11.757,15.005 11.960,17.998 10.079,17.998 C8.197,17.998 6.672,15.744 6.672,12.964 Z" fill="none" fill-rule="evenodd" stroke="rgb(196, 214, 220)" stroke-width="2px"></path>
                                <path d="M13.278,12.247 C10.672,12.247 8.558,10.620 8.558,8.613 C8.558,6.607 10.672,6.856 13.278,6.856 C15.885,6.856 17.998,6.607 17.998,8.613 C17.998,10.620 15.885,12.247 13.278,12.247 Z" fill="none" fill-rule="evenodd" stroke="rgb(196, 214, 220)" stroke-width="2px"></path>
                                <path d="M9.641,6.812 C10.840,6.812 11.813,7.834 11.813,9.094 C11.813,10.354 10.840,11.375 9.641,11.375 C8.441,11.375 7.469,10.354 7.469,9.094 C7.469,7.834 8.441,6.812 9.641,6.812 Z" fill="rgb(255, 255, 255)" fill-rule="evenodd" stroke="rgb(196, 214, 220)" stroke-width="2px"></path>
                            </svg>