<svg height="24px" width="34px" xmlns="http://www.w3.org/2000/svg">
                                <path d="M17.460,9.125 C26.135,9.125 33.167,12.231 33.167,16.062 C33.167,19.894 26.135,23.000 17.460,23.000 C8.785,23.000 1.752,19.894 1.752,16.062 C1.752,14.669 2.682,13.372 4.282,12.286 " fill="none" fill-rule="evenodd" stroke="rgb(196, 214, 220)" stroke-width="2px"></path>
                                <path d="M2.000,7.906 C2.000,6.094 3.474,4.625 5.292,4.625 C7.110,4.625 8.584,6.094 8.584,7.906 L8.584,16.219 " fill="none" fill-rule="evenodd" stroke="rgb(196, 214, 220)" stroke-width="2px"></path>
                                <path d="M7.703,4.281 C7.703,2.469 9.177,1.000 10.995,1.000 C12.813,1.000 14.287,2.469 14.287,4.281 L14.287,13.594 " fill="none" fill-rule="evenodd" stroke="rgb(196, 214, 220)" stroke-width="2px"></path>
                                <path d="M7.584,7.563 L12.099,5.875 " fill="none" fill-rule="evenodd" stroke="rgb(196, 214, 220)" stroke-width="2px"></path>
                                <path d="M7.584,11.563 L12.099,9.875 " fill="none" fill-rule="evenodd" stroke="rgb(196, 214, 220)" stroke-width="2px"></path>
                            </svg>