<?xml version="1.0" standalone="no"?>
<!DOCTYPE svg PUBLIC "-//W3C//DTD SVG 20010904//EN"
 "http://www.w3.org/TR/2001/REC-SVG-20010904/DTD/svg10.dtd">
<svg version="1.0" xmlns="http://www.w3.org/2000/svg"
 width="1200.000000pt" height="700.000000pt" viewBox="0 0 1200.000000 700.000000"
 preserveAspectRatio="xMidYMid meet">

<g transform="translate(0.000000,700.000000) scale(0.100000,-0.100000)"
fill="#000000" stroke="none">
<path d="M2888 5485 c-339 -86 -495 -482 -304 -771 45 -67 3046 -3086 3111
-3128 100 -66 155 -80 305 -80 152 0 207 14 302 78 68 44 3068 3062 3114 3130
166 251 69 604 -200 732 -149 71 -297 70 -446 -3 -87 -42 58 100 -1658 -1626
l-1112 -1118 -1112 1118 c-612 615 -1209 1216 -1328 1336 -222 225 -289 280
-388 317 -74 28 -206 35 -284 15z"/>
</g>
</svg>
