<svg
        xmlns="http://www.w3.org/2000/svg"
        width="9px" height="15px">
    <path fill-rule="evenodd" fill="rgb(255, 255, 255)"
          d="M2.430,8.260 L2.430,14.699 L5.564,14.699 L5.564,8.290 L7.701,8.290 L8.220,5.619 L5.591,5.619 C5.591,5.619 5.591,4.360 5.591,3.655 C5.591,3.386 5.734,3.024 6.170,3.024 C6.848,3.024 7.695,3.024 7.695,3.024 L7.695,0.301 C7.695,0.301 6.317,0.301 4.847,0.301 C3.870,0.301 2.428,1.510 2.428,2.791 C2.428,4.117 2.428,5.540 2.428,5.540 L0.780,5.540 L0.780,8.246 L2.430,8.260 Z"/>
</svg>