<svg xmlns="http://www.w3.org/2000/svg" viewBox="0 0 139 89">
    <path fill-rule="evenodd"  stroke="rgb(237, 235, 231)" stroke-width="6px" stroke-linecap="round" stroke-linejoin="round" fill="none"
          d="M99.854,6.359 C115.045,6.359 123.298,6.359 123.298,6.359 C127.314,6.359 130.570,9.567 130.570,13.525 L130.570,72.449 C130.570,76.406 127.314,79.614 123.298,79.614 L13.929,79.614 C9.913,79.614 6.657,76.406 6.657,72.449 L6.657,13.525 C6.657,9.567 9.913,6.359 13.929,6.359 C13.929,6.359 20.889,6.359 35.224,6.359 C43.627,6.359 90.699,6.359 99.854,6.359 Z"/>
    <path fill-rule="evenodd"  stroke="rgb(237, 235, 231)" stroke-width="6px" stroke-linecap="round" stroke-linejoin="round" fill="none"
          d="M7.118,11.940 C7.118,11.940 54.056,51.030 68.027,51.030 C81.997,51.030 130.609,12.222 130.609,12.222 "/>
    <path fill-rule="evenodd"  stroke="rgb(237, 235, 231)" stroke-width="6px" stroke-linecap="round" stroke-linejoin="round" fill="none"
          d="M7.377,75.326 L43.326,39.372 "/>
    <path fill-rule="evenodd"  stroke="rgb(237, 235, 231)" stroke-width="6px" stroke-linecap="round" stroke-linejoin="round" fill="none"
          d="M130.639,75.326 L95.692,39.114 "/>
</svg>