<svg height="18px" width="29px" xmlns="http://www.w3.org/2000/svg">
    <path d="M24.253,13.454 L24.253,5.325 C24.253,4.072 23.407,3.056 22.364,3.056 C21.321,3.056 21.345,4.072 21.345,5.325 L21.345,12.434 C21.345,13.069 19.539,15.007 18.614,14.999 C17.713,14.991 15.954,13.052 15.954,12.434 L15.954,5.325 C15.954,4.072 15.108,3.056 14.065,3.056 C13.022,3.056 13.046,4.072 13.046,5.325 L13.046,12.434 C13.046,13.062 11.259,15.001 10.343,14.999 C9.433,14.997 7.655,13.059 7.655,12.434 L7.655,5.325 C7.655,4.072 6.809,3.056 5.766,3.056 C4.723,3.056 4.747,4.072 4.747,5.325 L4.747,13.454 "
          fill="none" fill-rule="evenodd"
          stroke="rgb(196, 214, 220)"
          stroke-width="2px"/>
    <path d="M2.500,13.000 L5.500,13.000 C6.328,13.000 7.000,13.672 7.000,14.500 C7.000,15.328 6.328,16.000 5.500,16.000 L2.500,16.000 C1.672,16.000 1.000,15.328 1.000,14.500 C1.000,13.672 1.672,13.000 2.500,13.000 Z"
          fill="none" fill-rule="evenodd"
          stroke="rgb(196, 214, 220)"
          stroke-width="2px"/>
    <path d="M23.500,13.000 L26.500,13.000 C27.328,13.000 28.000,13.672 28.000,14.500 C28.000,15.328 27.328,16.000 26.500,16.000 L23.500,16.000 C22.672,16.000 22.000,15.328 22.000,14.500 C22.000,13.672 22.672,13.000 23.500,13.000 Z"
          fill="none" fill-rule="evenodd"
          stroke="rgb(196, 214, 220)"
          stroke-width="2px"/>
</svg>