<svg height="24px" width="26px" xmlns="http://www.w3.org/2000/svg">
    <path d="M3.433,9.889 L3.433,19.016 C3.433,19.016 3.066,19.776 4.408,19.776 C5.750,19.776 9.173,19.776 9.173,19.776 C9.173,19.776 9.931,19.904 9.931,19.016 C9.931,18.126 9.931,16.625 9.931,16.625 C9.931,16.625 9.664,16.132 10.581,15.865 C11.498,15.597 16.538,13.800 16.538,13.800 C16.538,13.800 17.151,13.501 17.404,13.909 C17.657,14.317 17.809,14.462 18.487,14.344 C19.165,14.225 21.411,13.692 21.411,13.692 C21.411,13.692 22.074,13.585 21.628,12.388 C21.181,11.191 20.870,10.650 20.870,10.650 C20.870,10.650 20.636,10.080 19.895,10.215 C19.154,10.351 10.689,11.736 10.689,11.736 C10.689,11.736 9.931,12.489 9.931,11.301 C9.931,10.114 9.931,9.780 9.931,9.780 "
          fill="none" fill-rule="evenodd"
          stroke="rgb(196, 214, 220)"
          stroke-width="2px"/>
    <path d="M21.003,16.887 C21.003,16.887 22.519,18.418 22.519,19.820 C22.519,20.496 21.841,21.341 21.003,21.341 C20.166,21.341 19.487,20.770 19.487,19.820 C19.487,17.882 21.003,16.887 21.003,16.887 Z"
          fill="none" fill-rule="evenodd"
          stroke="rgb(196, 214, 220)"
          stroke-width="2px"/>
    <path d="M3.975,7.672 L3.000,5.607 C3.000,5.607 2.914,4.106 4.841,3.978 C6.768,3.850 16.646,3.000 16.646,3.000 C16.646,3.000 18.169,3.205 17.187,3.543 C16.205,3.882 10.364,5.716 10.364,5.716 L10.364,6.912 C10.364,6.912 10.595,7.672 9.823,7.672 C9.051,7.672 3.975,7.672 3.975,7.672 Z"
          fill="none" fill-rule="evenodd"
          stroke="rgb(196, 214, 220)"
          stroke-width="2px"/>
</svg>