<svg height="24px" width="27px" xmlns="http://www.w3.org/2000/svg">
    <path d="M6.758,10.000 L8.242,10.000 C9.213,10.000 10.000,10.787 10.000,11.758 L10.000,20.242 C10.000,21.213 9.213,22.000 8.242,22.000 L6.758,22.000 C5.787,22.000 5.000,21.213 5.000,20.242 L5.000,11.758 C5.000,10.787 5.787,10.000 6.758,10.000 Z"
          fill="none" fill-rule="evenodd"
          stroke="rgb(196, 214, 220)"
          stroke-width="2px"/>
    <path d="M12.758,10.000 L14.242,10.000 C15.213,10.000 16.000,10.787 16.000,11.758 L16.000,20.242 C16.000,21.213 15.213,22.000 14.242,22.000 L12.758,22.000 C11.787,22.000 11.000,21.213 11.000,20.242 L11.000,11.758 C11.000,10.787 11.787,10.000 12.758,10.000 Z"
          fill="none" fill-rule="evenodd"
          stroke="rgb(196, 214, 220)"
          stroke-width="2px"/>
    <path d="M18.758,10.000 L20.242,10.000 C21.213,10.000 22.000,10.787 22.000,11.758 L22.000,20.242 C22.000,21.213 21.213,22.000 20.242,22.000 L18.758,22.000 C17.787,22.000 17.000,21.213 17.000,20.242 L17.000,11.758 C17.000,10.787 17.787,10.000 18.758,10.000 Z"
          fill="none" fill-rule="evenodd"
          stroke="rgb(196, 214, 220)"
          stroke-width="2px"/>
    <path d="M1.000,14.000 L5.000,14.000 " fill="none" fill-rule="evenodd"
          stroke="rgb(196, 214, 220)"
          stroke-width="2px"/>
    <path d="M10.000,8.000 C10.000,8.000 7.000,8.167 7.000,5.350 C7.000,3.174 9.000,3.109 9.000,3.109 C9.000,3.109 10.000,2.917 10.000,1.441 "
          fill="none" fill-rule="evenodd"
          stroke="rgb(196, 214, 220)"
          stroke-width="2px"/>
    <path d="M15.000,8.000 C15.000,8.000 12.000,8.167 12.000,5.350 C12.000,3.174 14.000,3.109 14.000,3.109 C14.000,3.109 15.000,2.917 15.000,1.441 "
          fill="none" fill-rule="evenodd"
          stroke="rgb(196, 214, 220)"
          stroke-width="2px"/>
    <path d="M20.000,8.000 C20.000,8.000 17.000,8.167 17.000,5.350 C17.000,3.174 19.000,3.109 19.000,3.109 C19.000,3.109 20.000,2.917 20.000,1.441 "
          fill="none" fill-rule="evenodd"
          stroke="rgb(196, 214, 220)"
          stroke-width="2px"/>
    <path d="M22.000,15.000 L25.000,15.000 L25.000,10.000 " fill="none" fill-rule="evenodd"
          stroke="rgb(196, 214, 220)"
          stroke-width="2px"/>
</svg>