<svg xmlns="http://www.w3.org/2000/svg" viewBox="0 0 20 20">
    <path fill-rule="evenodd" fill="rgb(0, 0, 0)"
          d="M14.190,0.000 L5.812,0.000 C2.604,0.002 0.004,2.602 0.000,5.810 L0.000,14.188 C0.003,17.396 2.602,19.996 5.810,20.000 L14.188,20.000 C17.396,19.997 19.996,17.398 20.000,14.190 L20.000,5.812 C19.998,2.604 17.398,0.004 14.190,0.000 ZM18.437,14.190 C18.435,16.535 16.535,18.435 14.190,18.437 L5.812,18.437 C3.467,18.435 1.567,16.535 1.565,14.190 L1.565,5.812 C1.567,3.467 3.467,1.567 5.812,1.565 L14.190,1.565 C16.535,1.567 18.435,3.467 18.437,5.812 L18.437,14.190 ZM10.000,4.609 C7.023,4.609 4.609,7.023 4.609,10.000 C4.609,12.977 7.023,15.391 10.000,15.391 C12.977,15.391 15.391,12.977 15.391,10.000 C15.388,7.024 12.976,4.613 10.000,4.609 ZM10.000,13.828 C7.886,13.828 6.172,12.114 6.172,10.000 C6.172,7.886 7.886,6.172 10.000,6.172 C12.114,6.172 13.828,7.886 13.828,10.000 L13.828,10.000 C13.826,12.113 12.113,13.826 10.000,13.828 ZM15.547,3.555 C16.065,3.555 16.485,3.974 16.485,4.492 C16.485,5.010 16.065,5.430 15.547,5.430 C15.029,5.430 14.609,5.010 14.609,4.492 L14.609,4.492 C14.609,3.975 15.028,3.555 15.546,3.555 C15.546,3.555 15.547,3.555 15.547,3.555 Z"/>
</svg>